# This file uses centimeters as units for non-parametric coordinates.

mtllib powerup.mtl
g default
v 2.471969 4.717656 -0.468175
v 1.427192 5.762433 -0.468175
v 0.000000 6.144847 -0.468175
v -1.427192 5.762433 -0.468175
v -2.471969 4.717656 -0.468175
v -2.854384 3.290464 -0.468175
v -2.471969 1.863272 -0.468175
v -1.427192 0.818495 -0.468175
v 0.000000 0.436080 -0.468175
v 1.427192 0.818495 -0.468175
v 2.471969 1.863272 -0.468175
v 2.854384 3.290464 -0.468175
v 2.167527 4.541885 0.306747
v 1.251422 5.457991 0.306747
v 0.000000 5.793309 0.306747
v -1.251422 5.457991 0.306747
v -2.167527 4.541885 0.306747
v -2.502844 3.290464 0.306747
v -2.167527 2.039042 0.306747
v -1.251422 1.122937 0.306747
v 0.000000 0.787619 0.306747
v 1.251422 1.122937 0.306747
v 2.167527 2.039042 0.306747
v 2.502844 3.290464 0.306747
v 0.000000 3.290464 0.468175
v 2.832606 4.925870 -0.468175
v 1.635406 6.123071 -0.468175
v 0.000000 6.561277 -0.468175
v -1.635406 6.123071 -0.468175
v -2.832606 4.925870 -0.468175
v -3.270812 3.290464 -0.468175
v -2.832606 1.655058 -0.468175
v -1.635406 0.457858 -0.468175
v 0.000000 0.019652 -0.468175
v 1.635406 0.457858 -0.468175
v 2.832606 1.655058 -0.468175
v 3.270812 3.290464 -0.468175
v 2.832606 4.925870 -0.939544
v 1.635406 6.123071 -0.939544
v 0.000000 6.561277 -0.939544
v -1.635406 6.123071 -0.939544
v -2.832606 4.925870 -0.939544
v -3.270812 3.290464 -0.939544
v -2.832606 1.655058 -0.939544
v -1.635406 0.457858 -0.939544
v 0.000000 0.019652 -0.939544
v 1.635406 0.457858 -0.939544
v 2.832606 1.655058 -0.939544
v 3.270812 3.290464 -0.939544
v 0.000000 3.290464 -0.939544
vt 0.375000 0.312500
vt 0.395833 0.312500
vt 0.416667 0.312500
vt 0.437500 0.312500
vt 0.458333 0.312500
vt 0.479167 0.312500
vt 0.500000 0.312500
vt 0.520833 0.312500
vt 0.541667 0.312500
vt 0.562500 0.312500
vt 0.583333 0.312500
vt 0.604167 0.312500
vt 0.625000 0.312500
vt 0.375000 0.688440
vt 0.395833 0.688440
vt 0.416667 0.688440
vt 0.437500 0.688440
vt 0.458333 0.688440
vt 0.479167 0.688440
vt 0.500000 0.688440
vt 0.520833 0.688440
vt 0.541667 0.688440
vt 0.562500 0.688440
vt 0.583333 0.688440
vt 0.604167 0.688440
vt 0.625000 0.688440
vt 0.635316 0.765625
vt 0.578125 0.708434
vt 0.500000 0.687500
vt 0.421875 0.708434
vt 0.364684 0.765625
vt 0.343750 0.843750
vt 0.364684 0.921875
vt 0.421875 0.979066
vt 0.500000 1.000000
vt 0.578125 0.979066
vt 0.635316 0.921875
vt 0.656250 0.843750
vt 0.500000 0.837500
vt 0.000000 0.000000
vt 1.000000 0.000000
vt 1.000000 1.000000
vt 0.000000 1.000000
vt 0.000000 0.000000
vt 1.000000 0.000000
vt 1.000000 1.000000
vt 0.000000 1.000000
vt 0.000000 0.000000
vt 1.000000 0.000000
vt 1.000000 1.000000
vt 0.000000 1.000000
vt 0.000000 0.000000
vt 1.000000 0.000000
vt 1.000000 1.000000
vt 0.000000 1.000000
vt 0.000000 0.000000
vt 1.000000 0.000000
vt 1.000000 1.000000
vt 0.000000 1.000000
vt 0.000000 0.000000
vt 1.000000 0.000000
vt 1.000000 1.000000
vt 0.000000 1.000000
vt 0.000000 0.000000
vt 1.000000 0.000000
vt 1.000000 1.000000
vt 0.000000 1.000000
vt 0.000000 0.000000
vt 1.000000 0.000000
vt 1.000000 1.000000
vt 0.000000 1.000000
vt 0.000000 0.000000
vt 1.000000 0.000000
vt 1.000000 1.000000
vt 0.000000 1.000000
vt 0.000000 0.000000
vt 1.000000 0.000000
vt 1.000000 1.000000
vt 0.000000 1.000000
vt 0.000000 0.000000
vt 1.000000 0.000000
vt 1.000000 1.000000
vt 0.000000 1.000000
vt 0.000000 0.000000
vt 1.000000 0.000000
vt 1.000000 1.000000
vt 0.000000 1.000000
vt 0.000000 0.000000
vt 1.000000 0.000000
vt 1.000000 1.000000
vt 0.000000 1.000000
vt 0.000000 0.000000
vt 1.000000 0.000000
vt 1.000000 1.000000
vt 0.000000 1.000000
vt 0.000000 0.000000
vt 1.000000 0.000000
vt 1.000000 1.000000
vt 0.000000 1.000000
vt 0.000000 0.000000
vt 1.000000 0.000000
vt 1.000000 1.000000
vt 0.000000 1.000000
vt 0.000000 0.000000
vt 1.000000 0.000000
vt 1.000000 1.000000
vt 0.000000 1.000000
vt 0.000000 0.000000
vt 1.000000 0.000000
vt 1.000000 1.000000
vt 0.000000 1.000000
vt 0.000000 0.000000
vt 1.000000 0.000000
vt 1.000000 1.000000
vt 0.000000 1.000000
vt 0.000000 0.000000
vt 1.000000 0.000000
vt 1.000000 1.000000
vt 0.000000 1.000000
vt 0.000000 0.000000
vt 1.000000 0.000000
vt 1.000000 1.000000
vt 0.000000 1.000000
vt 0.000000 0.000000
vt 1.000000 0.000000
vt 1.000000 1.000000
vt 0.000000 1.000000
vt 0.000000 0.000000
vt 1.000000 0.000000
vt 1.000000 1.000000
vt 0.000000 1.000000
vt 0.000000 0.000000
vt 1.000000 0.000000
vt 1.000000 1.000000
vt 0.000000 1.000000
vt 0.000000 0.000000
vt 1.000000 0.000000
vt 0.500000 1.000000
vt 0.000000 0.000000
vt 1.000000 0.000000
vt 0.500000 1.000000
vt 0.000000 0.000000
vt 1.000000 0.000000
vt 0.500000 1.000000
vt 0.000000 0.000000
vt 1.000000 0.000000
vt 0.500000 1.000000
vt 0.000000 0.000000
vt 1.000000 0.000000
vt 0.500000 1.000000
vt 0.000000 0.000000
vt 1.000000 0.000000
vt 0.500000 1.000000
vt 0.000000 0.000000
vt 1.000000 0.000000
vt 0.500000 1.000000
vt 0.000000 0.000000
vt 1.000000 0.000000
vt 0.500000 1.000000
vt 0.000000 0.000000
vt 1.000000 0.000000
vt 0.500000 1.000000
vt 0.000000 0.000000
vt 1.000000 0.000000
vt 0.500000 1.000000
vt 0.000000 0.000000
vt 1.000000 0.000000
vt 0.500000 1.000000
vt 0.000000 0.000000
vt 1.000000 0.000000
vt 0.500000 1.000000
vn 0.647657 0.647657 0.401348
vn 0.647657 0.647657 0.401348
vn 0.647657 0.647657 0.401348
vn 0.647657 0.647657 0.401348
vn 0.237059 0.884717 0.401347
vn 0.237059 0.884717 0.401347
vn 0.237059 0.884717 0.401347
vn 0.237059 0.884717 0.401347
vn -0.237059 0.884717 0.401347
vn -0.237059 0.884717 0.401347
vn -0.237059 0.884717 0.401347
vn -0.237059 0.884717 0.401347
vn -0.647657 0.647657 0.401348
vn -0.647657 0.647657 0.401348
vn -0.647657 0.647657 0.401348
vn -0.647657 0.647657 0.401348
vn -0.884716 0.237059 0.401347
vn -0.884716 0.237059 0.401347
vn -0.884716 0.237059 0.401347
vn -0.884716 0.237059 0.401347
vn -0.884716 -0.237059 0.401347
vn -0.884716 -0.237059 0.401347
vn -0.884716 -0.237059 0.401347
vn -0.884716 -0.237059 0.401347
vn -0.647658 -0.647657 0.401347
vn -0.647658 -0.647657 0.401347
vn -0.647657 -0.647657 0.401347
vn -0.647657 -0.647657 0.401347
vn -0.237059 -0.884716 0.401347
vn -0.237059 -0.884716 0.401347
vn -0.237059 -0.884716 0.401347
vn -0.237059 -0.884716 0.401347
vn 0.237059 -0.884716 0.401347
vn 0.237059 -0.884716 0.401347
vn 0.237059 -0.884716 0.401347
vn 0.237059 -0.884716 0.401347
vn 0.647657 -0.647657 0.401348
vn 0.647657 -0.647657 0.401348
vn 0.647657 -0.647657 0.401348
vn 0.647657 -0.647657 0.401348
vn 0.884716 -0.237059 0.401347
vn 0.884716 -0.237059 0.401347
vn 0.884716 -0.237059 0.401347
vn 0.884716 -0.237059 0.401347
vn 0.884716 0.237059 0.401347
vn 0.884716 0.237059 0.401347
vn 0.884716 0.237059 0.401347
vn 0.884716 0.237059 0.401347
vn 0.055741 0.032182 0.997926
vn 0.032182 0.055741 0.997926
vn 0.000000 -0.000000 1.000000
vn 0.000000 0.064364 0.997926
vn -0.032182 0.055741 0.997926
vn -0.055741 0.032182 0.997926
vn -0.064364 -0.000000 0.997926
vn -0.055741 -0.032182 0.997926
vn -0.032182 -0.055741 0.997926
vn 0.000000 -0.064364 0.997926
vn 0.032182 -0.055741 0.997926
vn 0.055741 -0.032182 0.997926
vn 0.064364 -0.000000 0.997926
vn 0.000000 0.000000 1.000000
vn 0.000000 0.000000 1.000000
vn 0.000000 0.000000 1.000000
vn 0.000000 0.000000 1.000000
vn 0.000000 0.000000 1.000000
vn 0.000000 0.000000 1.000000
vn 0.000000 0.000000 1.000000
vn 0.000000 0.000000 1.000000
vn 0.000000 0.000000 1.000000
vn 0.000000 0.000000 1.000000
vn 0.000000 0.000000 1.000000
vn 0.000000 0.000000 1.000000
vn 0.000000 0.000000 1.000000
vn 0.000000 0.000000 1.000000
vn 0.000000 0.000000 1.000000
vn 0.000000 0.000000 1.000000
vn 0.000000 0.000000 1.000000
vn 0.000000 0.000000 1.000000
vn 0.000000 0.000000 1.000000
vn 0.000000 0.000000 1.000000
vn 0.000000 0.000000 1.000000
vn 0.000000 0.000000 1.000000
vn 0.000000 0.000000 1.000000
vn 0.000000 0.000000 1.000000
vn 0.000000 0.000000 1.000000
vn 0.000000 0.000000 1.000000
vn 0.000000 0.000000 1.000000
vn 0.000000 0.000000 1.000000
vn 0.000000 0.000000 1.000000
vn 0.000000 0.000000 1.000000
vn 0.000000 0.000000 1.000000
vn 0.000000 0.000000 1.000000
vn 0.000000 0.000000 1.000000
vn 0.000000 0.000000 1.000000
vn 0.000000 0.000000 1.000000
vn 0.000000 0.000000 1.000000
vn 0.000000 0.000000 1.000000
vn 0.000000 0.000000 1.000000
vn 0.000000 0.000000 1.000000
vn 0.000000 0.000000 1.000000
vn 0.000000 0.000000 1.000000
vn 0.000000 0.000000 1.000000
vn 0.000000 0.000000 1.000000
vn 0.000000 0.000000 1.000000
vn 0.000000 0.000000 1.000000
vn 0.000000 0.000000 1.000000
vn 0.000000 0.000000 1.000000
vn 0.000000 0.000000 1.000000
vn 0.707107 0.707107 -0.000000
vn 0.707107 0.707107 -0.000000
vn 0.707107 0.707107 -0.000000
vn 0.707107 0.707107 -0.000000
vn 0.258819 0.965926 -0.000000
vn 0.258819 0.965926 -0.000000
vn 0.258819 0.965926 -0.000000
vn 0.258819 0.965926 -0.000000
vn -0.258819 0.965926 -0.000000
vn -0.258819 0.965926 -0.000000
vn -0.258819 0.965926 -0.000000
vn -0.258819 0.965926 -0.000000
vn -0.707107 0.707107 -0.000000
vn -0.707107 0.707107 -0.000000
vn -0.707107 0.707107 -0.000000
vn -0.707107 0.707107 -0.000000
vn -0.965926 0.258819 -0.000000
vn -0.965926 0.258819 -0.000000
vn -0.965926 0.258819 -0.000000
vn -0.965926 0.258819 -0.000000
vn -0.965926 -0.258819 0.000000
vn -0.965926 -0.258819 0.000000
vn -0.965926 -0.258819 0.000000
vn -0.965926 -0.258819 0.000000
vn -0.707107 -0.707107 0.000000
vn -0.707107 -0.707107 0.000000
vn -0.707107 -0.707107 0.000000
vn -0.707107 -0.707107 0.000000
vn -0.258819 -0.965926 0.000000
vn -0.258819 -0.965926 0.000000
vn -0.258819 -0.965926 0.000000
vn -0.258819 -0.965926 0.000000
vn 0.258819 -0.965926 0.000000
vn 0.258819 -0.965926 0.000000
vn 0.258819 -0.965926 0.000000
vn 0.258819 -0.965926 0.000000
vn 0.707107 -0.707107 0.000000
vn 0.707107 -0.707107 0.000000
vn 0.707107 -0.707107 0.000000
vn 0.707107 -0.707107 0.000000
vn 0.965926 -0.258819 0.000000
vn 0.965926 -0.258819 0.000000
vn 0.965926 -0.258819 0.000000
vn 0.965926 -0.258819 0.000000
vn 0.965926 0.258819 -0.000000
vn 0.965926 0.258819 -0.000000
vn 0.965926 0.258819 -0.000000
vn 0.965926 0.258819 -0.000000
vn 0.000000 -0.000000 -1.000000
vn 0.000000 -0.000000 -1.000000
vn 0.000000 -0.000000 -1.000000
vn 0.000000 0.000000 -1.000000
vn 0.000000 0.000000 -1.000000
vn 0.000000 0.000000 -1.000000
vn -0.000000 0.000000 -1.000000
vn -0.000000 0.000000 -1.000000
vn -0.000000 0.000000 -1.000000
vn -0.000000 -0.000000 -1.000000
vn -0.000000 -0.000000 -1.000000
vn -0.000000 -0.000000 -1.000000
vn -0.000000 0.000000 -1.000000
vn -0.000000 0.000000 -1.000000
vn -0.000000 0.000000 -1.000000
vn -0.000000 -0.000000 -1.000000
vn -0.000000 -0.000000 -1.000000
vn -0.000000 -0.000000 -1.000000
vn -0.000000 -0.000000 -1.000000
vn -0.000000 -0.000000 -1.000000
vn -0.000000 -0.000000 -1.000000
vn -0.000000 -0.000000 -1.000000
vn -0.000000 -0.000000 -1.000000
vn -0.000000 -0.000000 -1.000000
vn 0.000000 -0.000000 -1.000000
vn 0.000000 -0.000000 -1.000000
vn 0.000000 -0.000000 -1.000000
vn 0.000000 -0.000000 -1.000000
vn 0.000000 -0.000000 -1.000000
vn 0.000000 -0.000000 -1.000000
vn 0.000000 -0.000000 -1.000000
vn 0.000000 -0.000000 -1.000000
vn 0.000000 -0.000000 -1.000000
vn 0.000000 0.000000 -1.000000
vn 0.000000 0.000000 -1.000000
vn 0.000000 0.000000 -1.000000
s off
g pCylinder1
usemtl initialShadingGroup
f 1/1/1 2/2/2 14/15/3 13/14/4
f 14/15/5 2/2/6 3/3/7 15/16/8
f 3/3/9 4/4/10 16/17/11 15/16/12
f 4/4/13 5/5/14 17/18/15 16/17/16
f 5/5/17 6/6/18 18/19/19 17/18/20
f 6/6/21 7/7/22 19/20/23 18/19/24
f 7/7/25 8/8/26 20/21/27 19/20/28
f 8/8/29 9/9/30 21/22/31 20/21/32
f 9/9/33 10/10/34 22/23/35 21/22/36
f 10/10/37 11/11/38 23/24/39 22/23/40
f 11/11/41 12/12/42 24/25/43 23/24/44
f 12/12/45 1/13/46 13/26/47 24/25/48
s 1
f 13/37/49 14/36/50 25/39/51
f 14/36/50 15/35/52 25/39/51
f 15/35/52 16/34/53 25/39/51
f 16/34/53 17/33/54 25/39/51
f 17/33/54 18/32/55 25/39/51
f 18/32/55 19/31/56 25/39/51
f 19/31/56 20/30/57 25/39/51
f 20/30/57 21/29/58 25/39/51
f 21/29/58 22/28/59 25/39/51
f 22/28/59 23/27/60 25/39/51
f 23/27/60 24/38/61 25/39/51
f 24/38/61 13/37/49 25/39/51
s off
f 2/40/62 1/41/63 26/42/64 27/43/65
f 3/44/66 2/45/67 27/46/68 28/47/69
f 4/48/70 3/49/71 28/50/72 29/51/73
f 5/52/74 4/53/75 29/54/76 30/55/77
f 6/56/78 5/57/79 30/58/80 31/59/81
f 7/60/82 6/61/83 31/62/84 32/63/85
f 8/64/86 7/65/87 32/66/88 33/67/89
f 9/68/90 8/69/91 33/70/92 34/71/93
f 10/72/94 9/73/95 34/74/96 35/75/97
f 11/76/98 10/77/99 35/78/100 36/79/101
f 12/80/102 11/81/103 36/82/104 37/83/105
f 1/84/106 12/85/107 37/86/108 26/87/109
f 27/88/110 26/89/111 38/90/112 39/91/113
f 28/92/114 27/93/115 39/94/116 40/95/117
f 29/96/118 28/97/119 40/98/120 41/99/121
f 30/100/122 29/101/123 41/102/124 42/103/125
f 31/104/126 30/105/127 42/106/128 43/107/129
f 32/108/130 31/109/131 43/110/132 44/111/133
f 33/112/134 32/113/135 44/114/136 45/115/137
f 34/116/138 33/117/139 45/118/140 46/119/141
f 35/120/142 34/121/143 46/122/144 47/123/145
f 36/124/146 35/125/147 47/126/148 48/127/149
f 37/128/150 36/129/151 48/130/152 49/131/153
f 26/132/154 37/133/155 49/134/156 38/135/157
f 39/136/158 38/137/159 50/138/160
f 40/139/161 39/140/162 50/141/163
f 41/142/164 40/143/165 50/144/166
f 42/145/167 41/146/168 50/147/169
f 43/148/170 42/149/171 50/150/172
f 44/151/173 43/152/174 50/153/175
f 45/154/176 44/155/177 50/156/178
f 46/157/179 45/158/180 50/159/181
f 47/160/182 46/161/183 50/162/184
f 48/163/185 47/164/186 50/165/187
f 49/166/188 48/167/189 50/168/190
f 38/169/191 49/170/192 50/171/193
