# This file uses centimeters as units for non-parametric coordinates.

mtllib powerup.mtl
g default
v 2.471969 4.717656 -0.404582
v 1.427192 5.762433 -0.404582
v 0.000000 6.144847 -0.404582
v -1.427192 5.762433 -0.404582
v -2.471969 4.717656 -0.404582
v -2.854384 3.290464 -0.404582
v -2.471969 1.863272 -0.404582
v -1.427192 0.818495 -0.404582
v 0.000000 0.436080 -0.404582
v 1.427192 0.818495 -0.404582
v 2.471969 1.863272 -0.404582
v 2.854384 3.290464 -0.404582
v 0.000000 3.290464 -0.368485
v 2.832606 4.925871 -0.468175
v 1.635406 6.123071 -0.468175
v 0.000000 6.561277 -0.468175
v -1.635406 6.123071 -0.468175
v -2.832606 4.925871 -0.468175
v -3.270812 3.290464 -0.468175
v -2.832606 1.655058 -0.468175
v -1.635406 0.457858 -0.468175
v 0.000000 0.019652 -0.468175
v 1.635406 0.457858 -0.468175
v 2.832606 1.655058 -0.468175
v 3.270812 3.290464 -0.468175
v 2.619986 4.803114 -0.939544
v 1.512650 5.910450 -0.939544
v 0.000000 6.315764 -0.939544
v -1.512650 5.910450 -0.939544
v -2.619986 4.803114 -0.939544
v -3.025299 3.290464 -0.939544
v -2.619986 1.777815 -0.939544
v -1.512650 0.670478 -0.939544
v 0.000000 0.265165 -0.939544
v 1.512650 0.670478 -0.939544
v 2.619986 1.777815 -0.939544
v 3.025299 3.290464 -0.939544
v 0.000000 3.290465 -0.939544
vt 0.483517 0.564775
vt 0.389222 0.595695
vt 0.292768 0.566458
vt 0.217232 0.500353
vt 0.186388 0.405703
vt 0.207786 0.308791
vt 0.275254 0.235987
vt 0.370467 0.207049
vt 0.467765 0.229949
vt 0.540994 0.298718
vt 0.570620 0.394934
vt 0.549202 0.492513
vt 0.374239 0.397603
vt 0.492599 0.576457
vt 0.390171 0.609029
vt 0.285534 0.580633
vt 0.204865 0.508565
vt 0.171524 0.406583
vt 0.194367 0.302116
vt 0.266888 0.223512
vt 0.369403 0.192100
vt 0.474275 0.216558
vt 0.553279 0.290571
vt 0.585239 0.394428
vt 0.562058 0.500016
vt 0.569875 0.655478
vt 0.557519 0.745875
vt 0.593454 0.834536
vt 0.669769 0.895763
vt 0.767032 0.912001
vt 0.859811 0.878191
vt 0.923680 0.802898
vt 0.941903 0.705871
vt 0.910034 0.612617
vt 0.837240 0.547412
vt 0.744042 0.526580
vt 0.657132 0.553760
vt 0.752624 0.722582
vt 0.693453 0.383594
vt 0.640882 0.222992
vt 0.515968 0.112508
vt 0.353399 0.080368
vt 0.197315 0.134256
vt 0.089754 0.259071
vt 0.059568 0.420954
vt 0.114879 0.576426
vt 0.241266 0.684176
vt 0.406960 0.715266
vn 0.006323 0.010951 0.999920
vn 0.006323 0.010951 0.999920
vn 0.009257 0.009257 0.999914
vn 0.003388 0.012645 0.999914
vn -0.003388 0.012645 0.999914
vn -0.003388 0.012645 0.999914
vn -0.003388 0.012645 0.999914
vn -0.009257 0.009257 0.999914
vn -0.009257 0.009257 0.999914
vn -0.009257 0.009257 0.999914
vn -0.012645 0.003388 0.999914
vn -0.012645 0.003388 0.999914
vn -0.012645 0.003388 0.999914
vn -0.012645 -0.003388 0.999914
vn -0.012645 -0.003388 0.999914
vn -0.012645 -0.003388 0.999914
vn -0.009257 -0.009257 0.999914
vn -0.009257 -0.009257 0.999914
vn -0.009257 -0.009257 0.999914
vn -0.003388 -0.012645 0.999914
vn -0.003388 -0.012645 0.999914
vn -0.003388 -0.012645 0.999914
vn 0.003388 -0.012645 0.999914
vn 0.003388 -0.012645 0.999914
vn 0.003388 -0.012645 0.999914
vn 0.009257 -0.009257 0.999914
vn 0.009257 -0.009257 0.999914
vn 0.009257 -0.009257 0.999914
vn 0.012645 -0.003388 0.999914
vn 0.012645 -0.003388 0.999914
vn 0.012645 -0.003388 0.999914
vn 0.012645 0.003388 0.999914
vn 0.012645 0.003388 0.999914
vn 0.012645 0.003388 0.999914
vn 0.110419 0.110419 0.987732
vn 0.110419 0.110419 0.987732
vn 0.110419 0.110419 0.987732
vn 0.110419 0.110419 0.987732
vn 0.040416 0.150835 0.987732
vn 0.040416 0.150835 0.987732
vn 0.040416 0.150835 0.987732
vn 0.040416 0.150835 0.987732
vn -0.040416 0.150835 0.987732
vn -0.040416 0.150835 0.987732
vn -0.040416 0.150835 0.987732
vn -0.040416 0.150835 0.987732
vn -0.110419 0.110419 0.987732
vn -0.110419 0.110419 0.987732
vn -0.110419 0.110419 0.987732
vn -0.110419 0.110419 0.987732
vn -0.150836 0.040416 0.987732
vn -0.150836 0.040416 0.987732
vn -0.150836 0.040416 0.987732
vn -0.150836 0.040416 0.987732
vn -0.150836 -0.040416 0.987732
vn -0.150836 -0.040416 0.987732
vn -0.150836 -0.040416 0.987732
vn -0.150836 -0.040416 0.987732
vn -0.110419 -0.110419 0.987732
vn -0.110419 -0.110419 0.987732
vn -0.110419 -0.110419 0.987732
vn -0.110419 -0.110419 0.987732
vn -0.040416 -0.150836 0.987732
vn -0.040416 -0.150836 0.987732
vn -0.040416 -0.150836 0.987732
vn -0.040416 -0.150836 0.987732
vn 0.040416 -0.150836 0.987732
vn 0.040416 -0.150836 0.987732
vn 0.040416 -0.150836 0.987732
vn 0.040416 -0.150836 0.987732
vn 0.110419 -0.110419 0.987732
vn 0.110419 -0.110419 0.987732
vn 0.110419 -0.110419 0.987732
vn 0.110419 -0.110419 0.987732
vn 0.150836 -0.040416 0.987732
vn 0.150836 -0.040416 0.987732
vn 0.150836 -0.040416 0.987732
vn 0.150836 -0.040416 0.987732
vn 0.150836 0.040416 0.987732
vn 0.150836 0.040416 0.987732
vn 0.150836 0.040416 0.987732
vn 0.150836 0.040416 0.987732
vn 0.631670 0.631669 -0.449430
vn 0.631670 0.631669 -0.449430
vn 0.631670 0.631670 -0.449430
vn 0.631670 0.631670 -0.449430
vn 0.231208 0.862877 -0.449430
vn 0.231208 0.862877 -0.449430
vn 0.231208 0.862877 -0.449430
vn 0.231208 0.862877 -0.449430
vn -0.231208 0.862877 -0.449430
vn -0.231208 0.862877 -0.449430
vn -0.231208 0.862877 -0.449430
vn -0.231208 0.862876 -0.449430
vn -0.631670 0.631669 -0.449430
vn -0.631670 0.631669 -0.449430
vn -0.631670 0.631669 -0.449430
vn -0.631670 0.631669 -0.449430
vn -0.862877 0.231207 -0.449430
vn -0.862877 0.231207 -0.449430
vn -0.862877 0.231207 -0.449430
vn -0.862877 0.231207 -0.449430
vn -0.862876 -0.231207 -0.449430
vn -0.862876 -0.231207 -0.449430
vn -0.862877 -0.231207 -0.449430
vn -0.862877 -0.231207 -0.449430
vn -0.631670 -0.631669 -0.449430
vn -0.631670 -0.631669 -0.449430
vn -0.631670 -0.631669 -0.449430
vn -0.631670 -0.631669 -0.449430
vn -0.231207 -0.862877 -0.449430
vn -0.231207 -0.862877 -0.449430
vn -0.231207 -0.862877 -0.449430
vn -0.231207 -0.862877 -0.449430
vn 0.231207 -0.862877 -0.449430
vn 0.231207 -0.862877 -0.449430
vn 0.231207 -0.862877 -0.449430
vn 0.231207 -0.862877 -0.449430
vn 0.631670 -0.631669 -0.449430
vn 0.631670 -0.631669 -0.449430
vn 0.631670 -0.631669 -0.449430
vn 0.631670 -0.631669 -0.449430
vn 0.862876 -0.231207 -0.449430
vn 0.862876 -0.231207 -0.449430
vn 0.862876 -0.231207 -0.449430
vn 0.862876 -0.231207 -0.449430
vn 0.862877 0.231207 -0.449430
vn 0.862877 0.231207 -0.449430
vn 0.862877 0.231207 -0.449430
vn 0.862877 0.231207 -0.449430
vn 0.000000 -0.000000 -1.000000
vn 0.000000 -0.000000 -1.000000
vn 0.000000 -0.000000 -1.000000
vn 0.000000 0.000000 -1.000000
vn 0.000000 0.000000 -1.000000
vn 0.000000 0.000000 -1.000000
vn -0.000000 0.000000 -1.000000
vn -0.000000 0.000000 -1.000000
vn -0.000000 0.000000 -1.000000
vn -0.000000 -0.000000 -1.000000
vn -0.000000 -0.000000 -1.000000
vn -0.000000 -0.000000 -1.000000
vn -0.000000 -0.000000 -1.000000
vn -0.000000 -0.000000 -1.000000
vn -0.000000 -0.000000 -1.000000
vn -0.000000 -0.000000 -1.000000
vn -0.000000 -0.000000 -1.000000
vn -0.000000 -0.000000 -1.000000
vn -0.000000 -0.000000 -1.000000
vn -0.000000 -0.000000 -1.000000
vn -0.000000 -0.000000 -1.000000
vn -0.000000 -0.000000 -1.000000
vn -0.000000 -0.000000 -1.000000
vn -0.000000 -0.000000 -1.000000
vn 0.000000 -0.000000 -1.000000
vn 0.000000 -0.000000 -1.000000
vn 0.000000 -0.000000 -1.000000
vn 0.000000 -0.000000 -1.000000
vn 0.000000 -0.000000 -1.000000
vn 0.000000 -0.000000 -1.000000
vn 0.000000 -0.000000 -1.000000
vn 0.000000 -0.000000 -1.000000
vn 0.000000 -0.000000 -1.000000
vn 0.000000 0.000000 -1.000000
vn 0.000000 0.000000 -1.000000
vn 0.000000 0.000000 -1.000000
s 1
g pCylinder1
usemtl lambert4SG
f 2/2/1 13/13/2 1/1/3
f 13/13/2 2/2/1 3/3/4
s off
f 13/13/5 3/3/6 4/4/7
f 13/13/8 4/4/9 5/5/10
f 13/13/11 5/5/12 6/6/13
f 13/13/14 6/6/15 7/7/16
f 13/13/17 7/7/18 8/8/19
f 13/13/20 8/8/21 9/9/22
f 13/13/23 9/9/24 10/10/25
f 13/13/26 10/10/27 11/11/28
f 13/13/29 11/11/30 12/12/31
f 13/13/32 12/12/33 1/1/34
f 2/2/35 1/1/36 14/14/37 15/15/38
f 3/3/39 2/2/40 15/15/41 16/16/42
f 4/4/43 3/3/44 16/16/45 17/17/46
f 5/5/47 4/4/48 17/17/49 18/18/50
f 6/6/51 5/5/52 18/18/53 19/19/54
f 7/7/55 6/6/56 19/19/57 20/20/58
f 8/8/59 7/7/60 20/20/61 21/21/62
f 9/9/63 8/8/64 21/21/65 22/22/66
f 10/10/67 9/9/68 22/22/69 23/23/70
f 11/11/71 10/10/72 23/23/73 24/24/74
f 12/12/75 11/11/76 24/24/77 25/25/78
f 1/1/79 12/12/80 25/25/81 14/14/82
f 15/15/83 14/14/84 26/26/85 27/48/86
f 16/16/87 15/15/88 27/48/89 28/47/90
f 17/17/91 16/16/92 28/47/93 29/46/94
f 18/18/95 17/17/96 29/46/97 30/45/98
f 19/19/99 18/18/100 30/45/101 31/44/102
f 20/20/103 19/19/104 31/44/105 32/43/106
f 21/21/107 20/20/108 32/43/109 33/42/110
f 22/22/111 21/21/112 33/42/113 34/41/114
f 23/23/115 22/22/116 34/41/117 35/40/118
f 24/24/119 23/23/120 35/40/121 36/39/122
f 25/25/123 24/24/124 36/39/125 37/37/126
f 14/14/127 25/25/128 37/37/129 26/26/130
f 27/27/131 26/26/132 38/38/133
f 28/28/134 27/27/135 38/38/136
f 29/29/137 28/28/138 38/38/139
f 30/30/140 29/29/141 38/38/142
f 31/31/143 30/30/144 38/38/145
f 32/32/146 31/31/147 38/38/148
f 33/33/149 32/32/150 38/38/151
f 34/34/152 33/33/153 38/38/154
f 35/35/155 34/34/156 38/38/157
f 36/36/158 35/35/159 38/38/160
f 37/37/161 36/36/162 38/38/163
f 26/26/164 37/37/165 38/38/166
